<svg width="21" height="18" viewBox="0 0 21 18" fill="none" xmlns="http://www.w3.org/2000/svg">
<path d="M20.436 15.868L15.0693 11.5328C16.4213 10.1953 17.0854 8.4893 16.9245 6.76745C16.7636 5.04561 15.79 3.4395 14.2048 2.28108C12.6197 1.12265 10.5442 0.50045 8.40725 0.543069C6.27033 0.585688 4.23535 1.28987 2.72289 2.51007C1.21043 3.73028 0.336092 5.37324 0.280585 7.0994C0.225077 8.82556 0.992641 10.503 2.42464 11.785C3.85664 13.067 5.84362 13.8555 7.97491 13.9877C10.1062 14.1199 12.2189 13.5856 13.8764 12.4952L19.2431 16.8304C19.3214 16.8937 19.4144 16.9439 19.5167 16.9781C19.6191 17.0124 19.7287 17.03 19.8395 17.03C19.9503 17.03 20.06 17.0124 20.1623 16.9781C20.2647 16.9439 20.3577 16.8937 20.436 16.8304C20.5143 16.7672 20.5765 16.692 20.6188 16.6094C20.6612 16.5267 20.6831 16.4381 20.6831 16.3486C20.6831 16.2591 20.6612 16.1705 20.6188 16.0878C20.5765 16.0052 20.5143 15.93 20.436 15.8668V15.868ZM2.00379 7.29045C2.00409 6.23244 2.39275 5.19825 3.12062 4.31867C3.84849 3.43908 4.88289 2.7536 6.09301 2.34888C7.30314 1.94417 8.63464 1.8384 9.91918 2.04496C11.2037 2.25152 12.3836 2.76112 13.3096 3.50934C14.2356 4.25755 14.8662 5.21077 15.1216 6.24847C15.377 7.28617 15.2458 8.36175 14.7445 9.3392C14.2432 10.3167 13.3944 11.1521 12.3053 11.7399C11.2163 12.3276 9.93599 12.6414 8.62626 12.6414C6.8701 12.64 5.18636 12.0758 3.94472 11.0726C2.70307 10.0693 2.00501 8.70908 2.00379 7.29045Z" fill="white"/>
</svg>
